<svg width="34" height="35" viewBox="0 0 34 35" fill="none" xmlns="http://www.w3.org/2000/svg">
<g clip-path="url(#clip0_108_4007)">
<g clip-path="url(#clip1_108_4007)">
<g clip-path="url(#clip2_108_4007)">
<path d="M5 17.3398C5 7.73984 7.4 5.33984 17 5.33984C26.6 5.33984 29 7.73984 29 17.3398C29 26.9398 26.6 29.3398 17 29.3398C7.4 29.3398 5 26.9398 5 17.3398Z" fill="#FFC7B3"/>
<g filter="url(#filter0_f_108_4007)">
<path d="M16.9998 26.3862C21.9958 26.3862 26.0459 22.3361 26.0459 17.3401C26.0459 12.344 21.9958 8.29395 16.9998 8.29395C12.0037 8.29395 7.95361 12.344 7.95361 17.3401C7.95361 22.3361 12.0037 26.3862 16.9998 26.3862Z" fill="#FF521B" fill-opacity="0.3"/>
</g>
<g filter="url(#filter1_ii_108_4007)">
<path d="M11.509 13.5068C11.6292 13.4453 11.814 13.3714 11.9248 13.3406C12.1127 13.2852 12.2975 13.2821 15.2822 13.2791C18.3962 13.276 18.4424 13.2791 18.6549 13.3406C18.7751 13.3776 18.9814 13.4637 19.117 13.5314C19.2925 13.6238 19.4311 13.7284 19.5944 13.8915C19.7576 14.0547 19.8623 14.1962 19.9548 14.3686C20.0225 14.504 20.1057 14.6979 20.1396 14.7995C20.1919 14.9718 20.195 15.1503 20.195 20.4317L20.1118 20.6779C20.0656 20.8133 19.9763 21.0134 19.9116 21.1211C19.8469 21.2288 19.7022 21.4073 19.5913 21.5212C19.4773 21.632 19.2987 21.7766 19.1909 21.8413C19.0831 21.9059 18.8613 21.9982 18.4085 22.1398H12.1559L11.8632 22.0475C11.7031 21.9982 11.4813 21.9059 11.3735 21.8413C11.2657 21.7766 11.0871 21.632 10.9731 21.5212C10.8622 21.4073 10.7174 21.2288 10.6528 21.1211C10.5881 21.0134 10.4957 20.7918 10.354 20.3394V17.7171C10.354 15.1811 10.3571 15.0857 10.4156 14.8702C10.4495 14.7471 10.5172 14.5625 10.5665 14.4609C10.6127 14.3593 10.7205 14.187 10.8037 14.0793C10.8868 13.9716 11.0316 13.8207 11.124 13.7469C11.2164 13.673 11.3889 13.5653 11.509 13.5068Z" fill="url(#paint0_linear_108_4007)"/>
</g>
<path d="M12.4771 15.4932C12.2222 15.4932 12.0156 15.6998 12.0156 15.9547C12.0156 16.2096 12.2222 16.4163 12.4771 16.4163H15.5541C15.809 16.4163 16.0156 16.2096 16.0156 15.9547C16.0156 15.6998 15.809 15.4932 15.5541 15.4932H12.4771Z" fill="#333333"/>
<g filter="url(#filter2_ii_108_4007)">
<path d="M23.7374 13.8515C23.7712 13.8361 23.8327 13.8084 23.8759 13.7961C23.919 13.7807 24.0639 13.7746 24.1994 13.7807C24.378 13.7869 24.4826 13.8084 24.5781 13.8546C24.649 13.8915 24.763 13.9746 24.8339 14.0393C24.9016 14.1008 24.9971 14.2301 25.1234 14.4917V20.9241L25.0403 21.0934C24.9971 21.1857 24.9016 21.315 24.8339 21.3796C24.763 21.4412 24.649 21.5243 24.5781 21.5612C24.4672 21.6197 24.3965 21.632 24.1532 21.632C23.9406 21.632 23.8359 21.6197 23.7682 21.5827C23.7189 21.555 23.0998 21.1272 22.3975 20.6317C21.6952 20.1393 21.0607 19.6776 20.9868 19.6069C20.916 19.5361 20.8266 19.4099 20.7866 19.3237C20.7188 19.1698 20.7188 19.1575 20.7188 17.7079C20.7188 16.2583 20.7188 16.246 20.7866 16.0921C20.8266 16.009 20.916 15.8797 20.9868 15.809C21.0607 15.7382 21.6952 15.2765 22.3975 14.7841C23.0998 14.2886 23.7035 13.87 23.7374 13.8515Z" fill="#FFD7C7" fill-opacity="0.2"/>
</g>
<path d="M25.1234 20.9241L25.0403 21.0934M25.1234 20.9241V14.4917M25.1234 20.9241L25.0406 20.8834L25.031 20.9027M25.1234 20.9241H25.031V20.9027M25.0403 21.0934L23.8759 13.7961C23.919 13.7807 24.0639 13.7746 24.1994 13.7807C24.378 13.7869 24.4826 13.8084 24.5781 13.8546M25.0403 21.0934C24.9971 21.1857 24.9016 21.315 24.8339 21.3796M25.0403 21.0934L24.8339 21.3796M25.1234 14.4917C24.9971 14.2301 24.9016 14.1008 24.8339 14.0393C24.763 13.9746 24.649 13.8915 24.5781 13.8546M25.1234 14.4917H25.031V14.5129M25.1234 14.4917L25.0403 14.5318C25.0372 14.5254 25.034 14.5191 25.031 14.5129M25.031 20.9027V14.5129M25.031 20.9027L24.9573 21.0527L24.9566 21.0543C24.9189 21.135 24.8316 21.2537 24.7717 21.3114M24.5781 13.8546L24.5356 13.9365C24.536 13.9367 24.5364 13.9369 24.5368 13.9371M24.5781 13.8546L24.5381 13.9377C24.5376 13.9375 24.5372 13.9373 24.5368 13.9371M24.8339 21.3796L24.7733 21.3099C24.7728 21.3104 24.7722 21.3109 24.7717 21.3114M24.8339 21.3796L24.7702 21.3128C24.7707 21.3123 24.7712 21.3119 24.7717 21.3114M25.031 14.5129C24.9111 14.2678 24.8249 14.1558 24.7717 14.1075C24.7055 14.0471 24.599 13.9698 24.5368 13.9371M24.5368 13.9371C24.4579 13.8992 24.3676 13.8789 24.1961 13.873L24.1952 13.8729C24.13 13.87 24.0627 13.87 24.0072 13.8726C23.9794 13.8738 23.9555 13.8757 23.9368 13.878C23.9274 13.8791 23.92 13.8803 23.9144 13.8814C23.9091 13.8824 23.9069 13.8831 23.9069 13.8831L23.9014 13.8851C23.8677 13.8947 23.8158 13.9173 23.7802 13.9335C23.777 13.9355 23.7677 13.9415 23.7502 13.9532C23.7295 13.9671 23.7006 13.9868 23.6646 14.0115C23.5925 14.0609 23.4922 14.1303 23.3708 14.2147C23.128 14.3835 22.8017 14.6119 22.4507 14.8595C22.0999 15.1055 21.7659 15.3438 21.5107 15.5293C21.3831 15.6221 21.2755 15.7014 21.1952 15.7619C21.1138 15.8233 21.0657 15.8614 21.0513 15.875M21.0513 15.875C20.9887 15.9378 20.9063 16.0567 20.8703 16.1308M21.0513 15.875C21.0511 15.8752 21.0515 15.8748 21.0513 15.875ZM21.0513 15.875L20.9868 15.809M21.0513 15.875C21.0515 15.8748 21.0518 15.8745 21.052 15.8742L20.9868 15.809M24.7717 21.3114C24.7038 21.3701 24.5972 21.4472 24.5356 21.4793C24.4865 21.5051 24.4501 21.5191 24.4001 21.5275C24.3465 21.5365 24.2749 21.5397 24.1532 21.5397C23.9365 21.5397 23.8561 21.5255 23.8123 21.5017L23.7682 21.5827L23.8134 21.5023C23.8132 21.5021 23.8123 21.5016 23.8106 21.5006L23.8024 21.4953L23.7751 21.4774C23.7524 21.4624 23.7218 21.4417 23.6839 21.4159C23.6083 21.3643 23.5045 21.2929 23.3803 21.2068C23.1318 21.0346 22.8017 20.8039 22.4507 20.5563C22.0999 20.3103 21.7659 20.072 21.5107 19.8865C21.3831 19.7938 21.2755 19.7144 21.1952 19.6539C21.1138 19.5925 21.0657 19.5544 21.0513 19.5408M21.0513 19.5408C20.9879 19.4772 20.906 19.3611 20.8707 19.2856M21.0513 19.5408C21.0515 19.541 21.0518 19.5413 21.052 19.5416L20.9868 19.6069M21.0513 19.5408C21.0511 19.5406 21.0515 19.541 21.0513 19.5408ZM21.0513 19.5408L20.9868 19.6069M20.8707 19.2856C20.8544 19.2486 20.8451 19.2264 20.8378 19.1912C20.8298 19.1534 20.8237 19.0983 20.8195 18.9979C20.8112 18.7968 20.8111 18.4341 20.8111 17.7079C20.8111 16.9817 20.8112 16.619 20.8195 16.4179C20.8237 16.3175 20.8298 16.2624 20.8378 16.2246C20.8451 16.1896 20.8542 16.1674 20.8703 16.1308M20.8707 19.2856C20.8708 19.2859 20.8705 19.2853 20.8707 19.2856ZM20.8707 19.2856L20.7866 19.3237M20.9868 19.6069C20.916 19.5361 20.8266 19.4099 20.7866 19.3237M20.9868 19.6069L20.7866 19.3237M20.9868 19.6069C21.0607 19.6776 21.6952 20.1393 22.3975 20.6317L20.9868 19.6069ZM20.8703 16.1308C20.8701 16.1313 20.8699 16.1317 20.8696 16.1322L20.7866 16.0921M20.8703 16.1308C20.8705 16.1303 20.8707 16.1298 20.871 16.1293L20.7866 16.0921M20.7866 19.3237C20.7188 19.1698 20.7188 19.1575 20.7188 17.7079C20.7188 16.2583 20.7188 16.246 20.7866 16.0921M20.7866 19.3237V16.0921M20.7866 16.0921C20.8266 16.009 20.916 15.8797 20.9868 15.809M20.7866 16.0921L22.3975 14.7841C21.6952 15.2765 21.0607 15.7382 20.9868 15.809" stroke="#FF773F" stroke-width="0.184615"/>
</g>
</g>
</g>
<defs>
<filter id="filter0_f_108_4007" x="0.568993" y="0.909325" width="32.8615" height="32.862" filterUnits="userSpaceOnUse" color-interpolation-filters="sRGB">
<feFlood flood-opacity="0" result="BackgroundImageFix"/>
<feBlend mode="normal" in="SourceGraphic" in2="BackgroundImageFix" result="shape"/>
<feGaussianBlur stdDeviation="3.69231" result="effect1_foregroundBlur_108_4007"/>
</filter>
<filter id="filter1_ii_108_4007" x="9.61554" y="12.5399" width="11.3177" height="10.3383" filterUnits="userSpaceOnUse" color-interpolation-filters="sRGB">
<feFlood flood-opacity="0" result="BackgroundImageFix"/>
<feBlend mode="normal" in="SourceGraphic" in2="BackgroundImageFix" result="shape"/>
<feColorMatrix in="SourceAlpha" type="matrix" values="0 0 0 0 0 0 0 0 0 0 0 0 0 0 0 0 0 0 127 0" result="hardAlpha"/>
<feOffset dx="0.738462" dy="0.738462"/>
<feGaussianBlur stdDeviation="0.923077"/>
<feComposite in2="hardAlpha" operator="arithmetic" k2="-1" k3="1"/>
<feColorMatrix type="matrix" values="0 0 0 0 1 0 0 0 0 1 0 0 0 0 1 0 0 0 1 0"/>
<feBlend mode="normal" in2="shape" result="effect1_innerShadow_108_4007"/>
<feColorMatrix in="SourceAlpha" type="matrix" values="0 0 0 0 0 0 0 0 0 0 0 0 0 0 0 0 0 0 127 0" result="hardAlpha"/>
<feOffset dx="-0.738462" dy="-0.738462"/>
<feGaussianBlur stdDeviation="0.923077"/>
<feComposite in2="hardAlpha" operator="arithmetic" k2="-1" k3="1"/>
<feColorMatrix type="matrix" values="0 0 0 0 1 0 0 0 0 1 0 0 0 0 1 0 0 0 1 0"/>
<feBlend mode="normal" in2="effect1_innerShadow_108_4007" result="effect2_innerShadow_108_4007"/>
</filter>
<filter id="filter2_ii_108_4007" x="19.9803" y="13.0399" width="5.88171" height="9.33044" filterUnits="userSpaceOnUse" color-interpolation-filters="sRGB">
<feFlood flood-opacity="0" result="BackgroundImageFix"/>
<feBlend mode="normal" in="SourceGraphic" in2="BackgroundImageFix" result="shape"/>
<feColorMatrix in="SourceAlpha" type="matrix" values="0 0 0 0 0 0 0 0 0 0 0 0 0 0 0 0 0 0 127 0" result="hardAlpha"/>
<feOffset dx="0.738462" dy="0.738462"/>
<feGaussianBlur stdDeviation="0.923077"/>
<feComposite in2="hardAlpha" operator="arithmetic" k2="-1" k3="1"/>
<feColorMatrix type="matrix" values="0 0 0 0 1 0 0 0 0 0.356863 0 0 0 0 0.0823529 0 0 0 0.58 0"/>
<feBlend mode="normal" in2="shape" result="effect1_innerShadow_108_4007"/>
<feColorMatrix in="SourceAlpha" type="matrix" values="0 0 0 0 0 0 0 0 0 0 0 0 0 0 0 0 0 0 127 0" result="hardAlpha"/>
<feOffset dx="-0.738462" dy="-0.738462"/>
<feGaussianBlur stdDeviation="0.923077"/>
<feComposite in2="hardAlpha" operator="arithmetic" k2="-1" k3="1"/>
<feColorMatrix type="matrix" values="0 0 0 0 1 0 0 0 0 0.357911 0 0 0 0 0.0833333 0 0 0 1 0"/>
<feBlend mode="normal" in2="effect1_innerShadow_108_4007" result="effect2_innerShadow_108_4007"/>
</filter>
<linearGradient id="paint0_linear_108_4007" x1="10.354" y1="13.6106" x2="19.9191" y2="16.2662" gradientUnits="userSpaceOnUse">
<stop stop-color="white" stop-opacity="0.99"/>
<stop offset="1" stop-color="#FFD7CA"/>
</linearGradient>
<clipPath id="clip0_108_4007">
<rect width="34" height="34" fill="white" transform="translate(0 0.339844)"/>
</clipPath>
<clipPath id="clip1_108_4007">
<rect width="34" height="34" fill="white" transform="translate(0 0.339844)"/>
</clipPath>
<clipPath id="clip2_108_4007">
<rect width="34" height="34" fill="white" transform="translate(0 0.339844)"/>
</clipPath>
</defs>
</svg>
