<svg width="34" height="35" viewBox="0 0 34 35" fill="none" xmlns="http://www.w3.org/2000/svg">
<g clip-path="url(#clip0_108_4035)">
<g clip-path="url(#clip1_108_4035)">
<path d="M3.29053 17.8879C3.29053 7.35882 5.92279 4.72656 16.4518 4.72656C26.9809 4.72656 29.6131 7.35882 29.6131 17.8879C29.6131 28.4169 26.9809 31.0491 16.4518 31.0491C5.92279 31.0491 3.29053 28.4169 3.29053 17.8879Z" fill="#FFF1CF"/>
<g filter="url(#filter0_f_108_4035)">
<path d="M16.5529 26.1897C21.1937 26.1897 24.9559 22.4276 24.9559 17.7868C24.9559 13.1459 21.1937 9.38379 16.5529 9.38379C11.912 9.38379 8.1499 13.1459 8.1499 17.7868C8.1499 22.4276 11.912 26.1897 16.5529 26.1897Z" fill="#FF881B" fill-opacity="0.5"/>
</g>
<g filter="url(#filter1_ii_108_4035)">
<path d="M13.7529 16.9543C13.8331 16.9223 13.9668 16.8877 14.047 16.877C14.1272 16.8637 16.287 16.8584 18.8453 16.8584C23.2132 16.8637 23.5045 16.8664 23.6302 16.9117C23.7023 16.9356 23.8119 16.9863 23.8707 17.0209C23.9295 17.0556 24.0178 17.1248 24.0685 17.1728C24.1193 17.2234 24.1861 17.2981 24.2209 17.3434C24.2556 17.3859 24.3144 17.5006 24.3518 17.5965C24.4 17.7218 24.4187 17.8176 24.4187 17.9563C24.4187 18.0948 24.4026 18.1854 24.3492 18.316C24.3118 18.4092 23.8065 19.4298 23.2292 20.581C22.3524 22.329 22.1572 22.6941 22.0504 22.814C21.9594 22.9126 21.8579 22.9873 21.5211 23.1525H11.3818L11.1975 23.0592C11.0638 22.9899 10.9862 22.9286 10.9141 22.8326C10.8579 22.7581 10.8018 22.6595 10.7857 22.6115C10.7617 22.5289 10.8312 22.377 11.9646 20.0001C12.6275 18.6118 13.2049 17.4206 13.2504 17.3567C13.2958 17.2901 13.3947 17.1835 13.4695 17.1222C13.5444 17.0582 13.6728 16.9836 13.7529 16.9543Z" fill="white" fill-opacity="0.1"/>
</g>
<path d="M13.7529 16.9543C13.8331 16.9223 13.9668 16.8877 14.047 16.877C14.1272 16.8637 16.287 16.8584 18.8453 16.8584C23.2132 16.8637 23.5045 16.8664 23.6302 16.9117C23.7023 16.9356 23.8119 16.9863 23.8707 17.0209C23.9295 17.0556 24.0178 17.1248 24.0685 17.1728C24.1193 17.2234 24.1861 17.2981 24.2209 17.3434C24.2556 17.3859 24.3144 17.5006 24.3518 17.5965C24.4 17.7218 24.4187 17.8176 24.4187 17.9563C24.4187 18.0948 24.4026 18.1854 24.3492 18.316C24.3118 18.4092 23.8065 19.4298 23.2292 20.581C22.3524 22.329 22.1572 22.6941 22.0504 22.814C21.9594 22.9126 21.8579 22.9873 21.5211 23.1525H11.3818L11.1975 23.0592C11.0638 22.9899 10.9862 22.9286 10.9141 22.8326C10.8579 22.7581 10.8018 22.6595 10.7857 22.6115C10.7617 22.5289 10.8312 22.377 11.9646 20.0001C12.6275 18.6118 13.2049 17.4206 13.2504 17.3567C13.2958 17.2901 13.3947 17.1835 13.4695 17.1222C13.5444 17.0582 13.6728 16.9836 13.7529 16.9543Z" stroke="url(#paint0_linear_108_4035)" stroke-width="0.202481"/>
<g filter="url(#filter2_ii_108_4035)">
<path d="M11.0429 13.0558C11.1097 12.9945 11.222 12.9199 11.2968 12.888L11.4305 12.8267H13.2536C14.4458 12.824 15.0846 12.832 15.0928 12.8506C15.1008 12.864 15.1382 12.8826 15.1809 12.8906C15.221 12.8986 15.3065 12.9466 15.3734 12.9945C15.4562 13.0558 15.6381 13.2823 16.456 14.4202L21.6686 14.4362L21.8023 14.4948C21.8771 14.5294 21.9867 14.6067 22.0482 14.668C22.1097 14.7319 22.1872 14.8359 22.2219 14.9025C22.2808 15.0171 22.2834 15.0491 22.2968 16.3148H18.0546C15.3734 16.3175 13.7347 16.3254 13.6092 16.3441C13.4835 16.3601 13.3419 16.4027 13.2349 16.4534C13.1333 16.5013 13.005 16.5946 12.9275 16.6745C12.8553 16.7491 12.7538 16.893 12.7029 16.9943C12.6521 17.0982 12.2111 18.0203 11.7192 19.0462C11.2274 20.0721 10.8157 20.9221 10.7997 20.9381C10.7836 20.9541 10.7756 19.6404 10.789 13.4502L10.8558 13.3063C10.8932 13.2264 10.9761 13.1145 11.0429 13.0558Z" fill="url(#paint1_linear_108_4035)"/>
</g>
<path d="M11.0597 13.0754C10.9956 13.1317 10.9148 13.2406 10.8788 13.3175L10.8144 13.4563C10.8077 16.548 10.8063 18.4223 10.8087 19.5218C10.8099 20.0718 10.8119 20.428 10.8147 20.6454C10.8159 20.7355 10.8172 20.8017 10.8186 20.848C10.8297 20.826 10.8428 20.7995 10.858 20.7691C10.9064 20.6712 10.9747 20.5314 11.0579 20.3601C11.2243 20.0174 11.4501 19.5485 11.696 19.0355C11.8838 18.6439 12.0642 18.2674 12.2183 17.9457C12.4678 17.4249 12.6485 17.0478 12.6798 16.9835C12.7318 16.8801 12.8349 16.7338 12.9091 16.6571C12.9886 16.5751 13.1193 16.48 13.2238 16.4307L13.2348 16.4538C13.3417 16.4031 13.4833 16.3605 13.609 16.3444L11.0597 13.0754ZM11.0597 13.0754C11.1247 13.0157 11.2349 12.9425 11.3068 12.9119L11.436 12.8525L11.0597 13.0754Z" stroke="white" stroke-width="0.0510441"/>
<path d="M14.7304 17.8887C14.4508 17.8887 14.2241 18.1153 14.2241 18.3948C14.2241 18.6744 14.4508 18.9011 14.7304 18.9011H18.1051C18.3846 18.9011 18.6112 18.6744 18.6112 18.3948C18.6112 18.1153 18.3846 17.8887 18.1051 17.8887H14.7304Z" fill="#333333"/>
</g>
</g>
<defs>
<filter id="filter0_f_108_4035" x="0.0506411" y="1.28453" width="33.0047" height="33.0042" filterUnits="userSpaceOnUse" color-interpolation-filters="sRGB">
<feFlood flood-opacity="0" result="BackgroundImageFix"/>
<feBlend mode="normal" in="SourceGraphic" in2="BackgroundImageFix" result="shape"/>
<feGaussianBlur stdDeviation="4.04963" result="effect1_foregroundBlur_108_4035"/>
</filter>
<filter id="filter1_ii_108_4035" x="10.3773" y="16.4534" width="14.4466" height="7.10387" filterUnits="userSpaceOnUse" color-interpolation-filters="sRGB">
<feFlood flood-opacity="0" result="BackgroundImageFix"/>
<feBlend mode="normal" in="SourceGraphic" in2="BackgroundImageFix" result="shape"/>
<feColorMatrix in="SourceAlpha" type="matrix" values="0 0 0 0 0 0 0 0 0 0 0 0 0 0 0 0 0 0 127 0" result="hardAlpha"/>
<feOffset dx="0.404963" dy="0.404963"/>
<feGaussianBlur stdDeviation="1.01241"/>
<feComposite in2="hardAlpha" operator="arithmetic" k2="-1" k3="1"/>
<feColorMatrix type="matrix" values="0 0 0 0 1 0 0 0 0 0.541176 0 0 0 0 0 0 0 0 1 0"/>
<feBlend mode="normal" in2="shape" result="effect1_innerShadow_108_4035"/>
<feColorMatrix in="SourceAlpha" type="matrix" values="0 0 0 0 0 0 0 0 0 0 0 0 0 0 0 0 0 0 127 0" result="hardAlpha"/>
<feOffset dx="-0.404963" dy="-0.404963"/>
<feGaussianBlur stdDeviation="1.01241"/>
<feComposite in2="hardAlpha" operator="arithmetic" k2="-1" k3="1"/>
<feColorMatrix type="matrix" values="0 0 0 0 1 0 0 0 0 0.541176 0 0 0 0 0 0 0 0 1 0"/>
<feBlend mode="normal" in2="effect1_innerShadow_108_4035" result="effect2_innerShadow_108_4035"/>
</filter>
<filter id="filter2_ii_108_4035" x="10.578" y="12.622" width="11.923" height="8.52066" filterUnits="userSpaceOnUse" color-interpolation-filters="sRGB">
<feFlood flood-opacity="0" result="BackgroundImageFix"/>
<feBlend mode="normal" in="SourceGraphic" in2="BackgroundImageFix" result="shape"/>
<feColorMatrix in="SourceAlpha" type="matrix" values="0 0 0 0 0 0 0 0 0 0 0 0 0 0 0 0 0 0 127 0" result="hardAlpha"/>
<feOffset dx="0.204177" dy="0.204177"/>
<feGaussianBlur stdDeviation="0.25522"/>
<feComposite in2="hardAlpha" operator="arithmetic" k2="-1" k3="1"/>
<feColorMatrix type="matrix" values="0 0 0 0 1 0 0 0 0 1 0 0 0 0 1 0 0 0 1 0"/>
<feBlend mode="normal" in2="shape" result="effect1_innerShadow_108_4035"/>
<feColorMatrix in="SourceAlpha" type="matrix" values="0 0 0 0 0 0 0 0 0 0 0 0 0 0 0 0 0 0 127 0" result="hardAlpha"/>
<feOffset dx="-0.204177" dy="-0.204177"/>
<feGaussianBlur stdDeviation="0.25522"/>
<feComposite in2="hardAlpha" operator="arithmetic" k2="-1" k3="1"/>
<feColorMatrix type="matrix" values="0 0 0 0 1 0 0 0 0 1 0 0 0 0 1 0 0 0 1 0"/>
<feBlend mode="normal" in2="effect1_innerShadow_108_4035" result="effect2_innerShadow_108_4035"/>
</filter>
<linearGradient id="paint0_linear_108_4035" x1="17.6004" y1="16.8584" x2="17.6004" y2="23.1525" gradientUnits="userSpaceOnUse">
<stop stop-color="#FF961C"/>
<stop offset="1" stop-color="#FFAC4A" stop-opacity="0"/>
</linearGradient>
<linearGradient id="paint1_linear_108_4035" x1="12.7616" y1="14.1094" x2="15.714" y2="21.0215" gradientUnits="userSpaceOnUse">
<stop stop-color="white"/>
<stop offset="1" stop-color="#D2DCFF"/>
</linearGradient>
<clipPath id="clip0_108_4035">
<rect width="34" height="34" fill="white" transform="translate(0 0.339844)"/>
</clipPath>
<clipPath id="clip1_108_4035">
<rect width="34" height="34" fill="white" transform="translate(0 0.339844)"/>
</clipPath>
</defs>
</svg>
