<svg width="180" height="180" viewBox="0 0 180 180" fill="none" xmlns="http://www.w3.org/2000/svg">
<rect width="180" height="180" rx="8" fill="#3C4852" fill-opacity="0.16"/>
<path fill-rule="evenodd" clip-rule="evenodd" d="M146.024 116.485H33.9763C31.7041 116.485 30 114.639 30 112.509V33.9763C30 31.7041 31.8462 30 33.9763 30H146.024C148.296 30 150 31.8462 150 33.9763V112.509C150 114.639 148.296 116.485 146.024 116.485Z" fill="#FEFEFE"/>
<path fill-rule="evenodd" clip-rule="evenodd" d="M47.7515 106.828H132.107C132.675 102.568 136.083 99.1597 140.343 98.5917V47.7515C136.083 47.1834 132.675 43.7751 132.107 39.5148H47.7515C47.1835 43.7751 43.7752 47.1834 39.5149 47.7515V98.7337C43.9172 99.3018 47.1835 102.568 47.7515 106.828ZM133.385 109.527H46.6154C45.9054 109.527 45.3373 108.959 45.3373 108.248C45.3373 104.414 42.2131 101.29 38.3788 101.29C37.6687 101.29 37.1006 100.722 37.1006 100.012V46.4734C37.1006 45.7633 37.6687 45.1952 38.3788 45.1952C42.2131 45.1952 45.3373 42.071 45.3373 38.2367C45.3373 37.5266 45.9054 36.9586 46.6154 36.9586H133.385C134.095 36.9586 134.663 37.5266 134.663 38.2367C134.663 42.071 137.787 45.1952 141.621 45.1952C142.331 45.1952 142.899 45.7633 142.899 46.4734V99.8698C142.899 100.58 142.331 101.148 141.621 101.148C137.787 101.148 134.663 104.272 134.663 108.106C134.663 108.817 134.095 109.527 133.385 109.527Z" fill="#E5EAEE"/>
<mask id="mask0_649_116" style="mask-type:luminance" maskUnits="userSpaceOnUse" x="30" y="30" width="120" height="120">
<path fill-rule="evenodd" clip-rule="evenodd" d="M30 150H150V30H30V150Z" fill="white"/>
</mask>
<g mask="url(#mask0_649_116)">
<path fill-rule="evenodd" clip-rule="evenodd" d="M67.2071 52.4379H112.651V46.1893H67.2071V52.4379Z" fill="#3C4852"/>
<path fill-rule="evenodd" clip-rule="evenodd" d="M49.1716 62.9467H126.568V58.9704H49.1716V62.9467Z" fill="#E5EAEE"/>
<path fill-rule="evenodd" clip-rule="evenodd" d="M49.1716 71.1834H126.568V67.2071H49.1716V71.1834Z" fill="#E5EAEE"/>
<path fill-rule="evenodd" clip-rule="evenodd" d="M59.3965 79.5621H116.343V75.5858H59.3965V79.5621Z" fill="#E5EAEE"/>
<path fill-rule="evenodd" clip-rule="evenodd" d="M115.521 111.206L121.883 114.401L106.375 145.555L102.399 137.7L93.7834 139.165L109.291 108.011L115.521 111.206Z" fill="#212E39"/>
<path fill-rule="evenodd" clip-rule="evenodd" d="M119.232 115.333L112.87 118.529L128.378 149.682L132.354 141.96L140.969 143.425L125.462 112.271L119.232 115.333Z" fill="#212E39"/>
<path fill-rule="evenodd" clip-rule="evenodd" d="M141.632 104.017C143.09 102.552 143.09 100.156 141.632 98.6912C140.572 97.6261 140.174 96.0285 140.837 94.5643C141.632 92.5673 140.704 90.4368 138.849 89.6379C137.39 89.1054 136.463 87.6409 136.463 86.1764C136.463 84.0462 134.74 82.3155 132.619 82.3155C131.028 82.3155 129.703 81.3835 129.173 79.919C128.377 77.922 126.124 77.1232 124.269 77.922C122.811 78.4545 121.22 78.1882 120.16 77.1232C118.702 75.6587 116.316 75.6587 114.858 77.1232C113.798 78.1882 112.207 78.5876 110.749 77.922C108.761 77.1232 106.64 78.0551 105.845 79.919C105.315 81.3835 103.857 82.3155 102.399 82.3155C100.278 82.3155 98.555 84.0462 98.555 86.1764C98.555 87.774 97.6272 89.1054 96.1692 89.6379C94.181 90.4368 93.3858 92.7001 94.181 94.5643C94.7112 96.0285 94.4464 97.6261 93.3858 98.6912C91.9278 100.156 91.9278 102.552 93.3858 104.017C94.4464 105.082 94.8437 106.679 94.181 108.144C93.3858 110.141 94.3136 112.271 96.1692 113.07C97.6272 113.602 98.555 115.067 98.555 116.532C98.555 118.662 100.278 120.392 102.399 120.392C103.989 120.392 105.315 121.324 105.845 122.789C106.64 124.786 108.893 125.585 110.749 124.786C112.207 124.253 113.798 124.52 114.858 125.585C116.316 127.049 118.702 127.049 120.16 125.585C121.22 124.52 122.811 124.12 124.269 124.786C126.257 125.585 128.377 124.653 129.173 122.789C129.703 121.324 131.161 120.392 132.619 120.392C134.74 120.392 136.463 118.662 136.463 116.532C136.463 114.934 137.39 113.602 138.849 113.07C140.837 112.271 141.632 110.008 140.837 108.144C140.174 106.812 140.572 105.082 141.632 104.017Z" fill="#3C4852"/>
<path fill-rule="evenodd" clip-rule="evenodd" d="M117.377 83.6469C127.112 83.6469 135.005 91.5745 135.005 101.354C135.005 111.134 127.112 119.061 117.377 119.061C107.641 119.061 99.7482 111.134 99.7482 101.354C99.7482 91.5745 107.641 83.6469 117.377 83.6469Z" fill="#FEFEFE"/>
<path fill-rule="evenodd" clip-rule="evenodd" d="M117.377 85.777C125.941 85.777 132.884 92.751 132.884 101.354C132.884 109.957 125.941 116.931 117.377 116.931C108.812 116.931 101.869 109.957 101.869 101.354C101.869 92.751 108.812 85.777 117.377 85.777Z" fill="#3C4852"/>
</g>
</svg>
