<svg width="24" height="24" viewBox="0 0 24 24" fill="none" xmlns="http://www.w3.org/2000/svg">
<path d="M20.7946 16.4079C20.2121 15.8849 19.7022 15.2854 19.2785 14.6254C18.8155 13.7146 18.5382 12.7196 18.463 11.6991V9.59378C18.467 7.9911 17.8898 6.4421 16.8399 5.23783C15.7899 4.03356 14.5523 3.26947 12.761 3.0538C12.1357 2.9785 11.7726 2.98197 11.1483 3.06597C9.37293 3.30486 8.15111 4.06506 7.11494 5.26529C6.07877 6.46551 5.50956 8.00328 5.51274 9.59378V11.6991C5.43758 12.7196 5.16032 13.7146 4.69731 14.6254C4.28107 15.2839 3.77931 15.8833 3.20537 16.4079C3.14094 16.4649 3.0893 16.5351 3.05389 16.6138C3.01848 16.6925 3.00011 16.7778 3 16.8642V17.6916C3 17.8529 3.06364 18.0077 3.17691 18.1218C3.29019 18.2359 3.44383 18.3 3.60403 18.3H20.3959C20.5561 18.3 20.7098 18.2359 20.823 18.1218C20.9363 18.0077 20.9999 17.8529 20.9999 17.6916V16.8642C20.9998 16.7778 20.9815 16.6925 20.9461 16.6138C20.9107 16.5351 20.859 16.4649 20.7946 16.4079ZM4.25637 17.0832C4.81823 16.5363 5.31303 15.9236 5.73019 15.2581C6.31355 14.1581 6.65356 12.944 6.72684 11.6991V9.59378C6.70288 8.88079 6.82162 8.17024 7.07599 7.50443C7.33036 6.83863 7.71515 6.23118 8.20745 5.71828C8.69975 5.20537 9.2895 4.79749 9.94157 4.51892C10.5936 4.24035 11.2947 4.09679 12.003 4.09679C12.7113 4.09679 13.4124 4.24035 14.0644 4.51892C14.7165 4.79749 15.3062 5.20537 15.7985 5.71828C16.2908 6.23118 16.6756 6.83863 16.93 7.50443C17.1844 8.17024 17.3031 8.88079 17.2792 9.59378V11.6991C17.3524 12.944 17.6924 14.1581 18.2758 15.2581C18.693 15.9236 19.1878 16.5363 19.7496 17.0832H4.25637Z" fill="black" stroke="black" stroke-width="0.5"/>
<path d="M12.057 20.9998C12.7756 20.987 13.4651 20.7793 14.0037 20.4134C14.5423 20.0474 14.8952 19.5467 15 19H9C9.10776 19.5616 9.47717 20.074 10.0395 20.4419C10.6018 20.8097 11.3188 21.008 12.057 20.9998Z" fill="black"/>
</svg>
