<svg width="256" height="256" viewBox="0 0 256 256" fill="none" xmlns="http://www.w3.org/2000/svg">
<g clip-path="url(#clip0_794_124)">
<rect width="256" height="256" rx="128" fill="#3C4852"/>
<path d="M97.5518 46.0578C83.9537 56.176 80.2999 72.1965 80.9691 80.722C81.8257 91.148 83.9404 104.719 83.9404 104.719C83.9404 104.719 79.7512 106.995 79.7512 116.149C81.21 139.129 88.8924 129.212 90.4717 139.29C94.2727 163.568 102.959 159.245 102.959 172.495C102.959 194.565 93.8578 204.884 65.4439 217.117C36.9362 229.403 7.54523 244.862 7.54523 271.63V285.013H248.455V271.63C248.455 244.862 219.051 229.403 190.53 217.13C162.116 204.898 153.041 194.592 153.041 172.509C153.041 159.259 161.701 163.582 165.515 139.303C167.108 129.225 174.777 139.143 176.262 116.162C176.262 107.008 172.06 104.733 172.06 104.733C172.06 104.733 174.174 91.1614 175.018 80.7354C175.888 69.8007 169.691 46.4593 144.235 39.2989C139.778 34.7484 132.283 33.9618 124.214 34.1612C112.816 34.4429 113.519 34.5209 97.5518 46.0578Z" fill="white"/>
</g>
<defs>
<clipPath id="clip0_794_124">
<rect width="256" height="256" rx="128" fill="white"/>
</clipPath>
</defs>
</svg>
